<svg preserveAspectRatio="none" width="100%" height="100%" overflow="visible" style="display: block;" viewBox="0 0 72.0667 5.86667" fill="none" xmlns="http://www.w3.org/2000/svg">
<g id="Group 568">
<path id="Vector 98" d="M55.6 1.66667H49.6H49.4L50.1333 0.933333H57.1333L59.4667 3.26667H67.2L68.4 4.46667H71.4818L71.8667 5.13333H59.9333L58.0667 3.26667H57.2L55.6 1.66667Z" fill="var(--fill-0, #2293D5)"/>
<path id="Vector 99" d="M42.8667 1.8H40.8337L40.3333 0.933333H43.4L45 2.53333H55.2L56.0667 3.4H44.4667L42.8667 1.8Z" fill="var(--fill-0, #2293D5)"/>
<path id="Vector 100" d="M47.6667 1.6L49.2 0.0666667H51.5333" stroke="var(--stroke-0, #006A9F)" stroke-width="0.133333"/>
<path id="Vector 101" d="M59.7333 2.33333H67.6667L69.2667 3.93333" stroke="var(--stroke-0, #006A9F)" stroke-width="0.133333"/>
<path id="Vector 102" d="M39.3333 1.53333L38.5635 0.2H41.4667" stroke="var(--stroke-0, #006A9F)" stroke-width="0.133333"/>
<g id="Group 566">
<path id="Vector 103" d="M57.2 3.86686H55.5333L56.9333 5.26686H58.6L57.2 3.86686Z" fill="var(--fill-0, #2293D5)"/>
<path id="Vector 104" d="M54.6667 3.86686H53L54.4 5.26686H56.0667L54.6667 3.86686Z" fill="var(--fill-0, #2293D5)"/>
<path id="Vector 105" d="M52.1333 3.86686H50.4667L51.8667 5.26686H53.5333L52.1333 3.86686Z" fill="var(--fill-0, #2293D5)"/>
<path id="Vector 106" d="M49.6 3.86686H47.9333L49.3333 5.26686H51L49.6 3.86686Z" fill="var(--fill-0, #2293D5)"/>
<path id="Vector 107" d="M47.0667 3.86667H45.4L46.8 5.26667H48.4667L47.0667 3.86667Z" fill="var(--fill-0, #2293D5)"/>
</g>
<path id="Vector 108" d="M41.7333 5.8H72.0667" stroke="var(--stroke-0, #006A9F)" stroke-width="0.133333"/>
<path id="Vector 109" d="M40.6 4.2H15.8L16.4667 3.53333H22.8L23.9333 2.4H42.5333L45.4 5.26667H41.6667L40.6 4.2Z" fill="var(--fill-0, #2293D5)"/>
<path id="Vector 110" d="M22.6 2.93333H0L0.666667 2.26667H17.0667L18.2667 1.06667H24.4667L22.6 2.93333Z" fill="var(--fill-0, #2293D5)"/>
<path id="Vector 111" d="M5.4 4.8H40" stroke="var(--stroke-0, #006A9F)" stroke-width="0.133333"/>
</g>
</svg>
