<svg preserveAspectRatio="none" width="100%" height="100%" overflow="visible" style="display: block;" viewBox="0 0 153.065 153.051" fill="none" xmlns="http://www.w3.org/2000/svg">
<g id="&#233;&#165;&#188;&#229;&#155;&#190;ECharts-&#230;&#149;&#180;&#228;&#189;&#147;&#229;&#135;&#143;&#229;&#176;&#145;&#233;&#128;&#143;&#230;&#152;&#142;&#229;&#186;&#166;&#230;&#148;&#190;&#231;&#189;&#174;&#229;&#156;&#168;&#228;&#184;&#139;&#230;&#150;&#185;" opacity="0.2">
<path id="Ellipse 31" d="M134.916 40.5993C138.421 38.4428 139.543 33.8265 137.053 30.5493C130.679 22.1572 122.628 15.1813 113.413 10.0673C109.815 8.07023 105.405 9.83769 103.77 13.6143L96.8208 29.6634C95.1855 33.4399 96.969 37.7772 100.413 40.0308C103.687 42.1742 106.659 44.7489 109.247 47.6851C111.968 50.7725 116.515 51.9201 120.02 49.7636L134.916 40.5993Z" fill="var(--fill-0, #0FD73E)" stroke="var(--stroke-0, #0B1D43)" stroke-width="1.06452"/>
<path id="Ellipse 32" d="M49.9378 13.3396C48.3412 9.54654 43.9497 7.73422 40.3311 9.69443C27.8628 16.4485 17.5287 26.5615 10.5065 38.8808C8.4685 42.4561 10.1854 46.8857 13.9431 48.5641L29.9117 55.6963C33.6694 57.3746 38.0267 55.6406 40.3195 52.2231C43.6557 47.2506 47.982 43.0169 53.0255 39.7891C56.4918 37.5706 58.3196 33.2519 56.723 29.4588L49.9378 13.3396Z" fill="var(--fill-0, #E37C38)" stroke="var(--stroke-0, #0B1D43)" stroke-width="1.06452"/>
<path id="Ellipse 35" d="M103.529 13.5106C105.15 9.72778 103.405 5.3094 99.4819 4.06667C96.314 3.06322 93.0836 2.26861 89.8117 1.68797C85.7596 0.968889 82.1641 4.07361 81.8451 8.17664L80.4651 25.929C80.1597 29.8576 83.1222 33.2322 86.9485 34.1734V34.1734C90.7749 35.1146 94.9648 33.4994 96.5167 29.8774L103.529 13.5106Z" fill="var(--fill-0, #987BFF)" stroke="var(--stroke-0, #0B1D43)" stroke-width="1.06452"/>
<path id="Ellipse 37" d="M81.8954 8.18056C82.2174 4.07777 79.1475 0.452414 75.0329 0.533608C67.8438 0.675471 60.7107 1.83695 53.848 3.98314C49.9202 5.21149 48.159 9.62351 49.766 13.4122L56.595 29.5129C58.2019 33.3016 62.5726 35.0014 66.5794 34.0621C68.529 33.6051 70.5078 33.2829 72.5017 33.0978C76.5994 32.7174 80.2051 29.7188 80.5271 25.616L81.8954 8.18056Z" fill="var(--fill-0, #FF5A7E)" stroke="var(--stroke-0, #0B1D43)" stroke-width="1.06452"/>
<path id="Ellipse 34" d="M111.687 135.366C113.798 138.899 118.399 140.081 121.708 137.634C127.711 133.197 133.038 127.892 137.51 121.881C143.467 113.874 147.788 104.771 150.228 95.0931C152.667 85.4153 153.176 75.3519 151.726 65.4773C150.638 58.0652 148.461 50.8685 145.279 44.1165C143.524 40.3938 138.913 39.2534 135.38 41.364L120.366 50.3332C116.833 52.4437 115.747 57.006 117.226 60.8464C118.384 63.8513 119.207 66.9823 119.677 70.1833C120.509 75.8492 120.217 81.6235 118.818 87.1765C117.418 92.7295 114.938 97.9524 111.52 102.547C109.589 105.143 107.38 107.51 104.937 109.607C101.814 112.288 100.607 116.819 102.718 120.352L111.687 135.366Z" fill="var(--fill-0, #B866BA)" stroke="var(--stroke-0, #0B1D43)" stroke-width="1.06452"/>
<path id="Ellipse 36" d="M38.7774 133.733C36.5108 137.168 37.4437 141.826 41.084 143.746C51.4626 149.218 62.9997 152.23 74.797 152.499C86.5943 152.768 98.2569 150.287 108.874 145.294C112.599 143.542 113.743 138.932 111.636 135.397L102.68 120.375C100.572 116.84 96.0108 115.751 92.1691 117.227C86.8881 119.255 81.2398 120.245 75.5366 120.115C69.8335 119.985 64.2363 118.738 59.0534 116.47C55.283 114.821 50.6767 115.701 48.41 119.136L38.7774 133.733Z" fill="var(--fill-0, #00D9FF)" stroke="var(--stroke-0, #0B1D43)" stroke-width="1.06452"/>
<path id="Ellipse 33" d="M13.9263 48.6017C10.1676 46.9257 5.72394 48.6061 4.42383 52.5107C-0.442647 67.1264 -0.770288 82.9401 3.58389 97.8385C7.93807 112.737 16.7301 125.885 28.7015 135.58C31.8997 138.17 36.5489 137.193 38.8134 133.757L48.4368 119.153C50.7013 115.717 49.6957 111.136 46.6944 108.32C41.0444 103.019 36.874 96.2743 34.6755 88.7518C32.477 81.2293 32.3587 73.3001 34.2647 65.7905C35.2772 61.8016 33.6579 57.4004 29.8992 55.7243L13.9263 48.6017Z" fill="var(--fill-0, #D5BF43)" stroke="var(--stroke-0, #0B1D43)" stroke-width="1.06452"/>
</g>
</svg>
